<svg width="1441" height="694" viewBox="0 0 1441 694" fill="none" xmlns="http://www.w3.org/2000/svg">
<path d="M267.096 385.488C267.806 383.29 270.628 382.685 272.177 384.398L317.279 434.305C318.827 436.018 317.94 438.765 315.682 439.25L249.911 453.356C247.653 453.84 245.717 451.698 246.427 449.501L267.096 385.488Z" stroke="#58D1BD" stroke-width="2"/>
<path d="M57.5192 136.952C59.0385 133.837 62.3908 132.055 65.8229 132.537L104.77 138.011C108.202 138.493 110.933 141.131 111.535 144.544L118.365 183.276C118.967 186.69 117.302 190.102 114.242 191.729L79.5158 210.194C76.4557 211.821 72.6959 211.292 70.2028 208.885L41.9111 181.564C39.418 179.156 38.7587 175.417 40.278 172.302L57.5192 136.952Z" fill="white" stroke="#FFA1A1" stroke-width="2"/>
<path d="M1354.3 529.589C1357.09 527.981 1360.52 527.981 1363.3 529.589L1394.58 547.645C1397.36 549.253 1399.08 552.224 1399.08 555.439V591.552C1399.08 594.767 1397.36 597.738 1394.58 599.346L1363.3 617.402C1360.52 619.01 1357.09 619.01 1354.3 617.402L1323.03 599.346C1320.24 597.738 1318.53 594.767 1318.53 591.552V555.439C1318.53 552.224 1320.24 549.253 1323.03 547.645L1354.3 529.589Z" fill="#58D1BD"/>
<path d="M1095.73 489.772L1058.08 446.123C1055.91 443.613 1056.19 439.773 1058.93 437.918C1086.65 419.196 1117.76 440.6 1133.47 457.456C1135.68 459.833 1135.34 463.53 1132.88 465.653L1104.19 490.397C1101.68 492.561 1097.89 492.281 1095.73 489.772Z" fill="white" stroke="#B19EFF" stroke-width="2"/>
<rect x="-36.2797" y="570.371" width="99.7649" height="99.7649" rx="32" transform="rotate(-24.4052 -36.2797 570.371)" fill="#70AAFC"/>
<rect x="1272.24" y="205.707" width="127.024" height="40.2664" rx="20.1332" transform="rotate(-39.2972 1272.24 205.707)" fill="white" stroke="#58D1BD" stroke-width="2"/>
</svg>
